#!OML:ASF E:/inclinewalkrobotboard/Project1/Captureday1/Session1/subject1.ASF
:FULLY-SPECIFIED
:DEGREES
313
root 0 0 0 -1.6880353763294433 -5.125289263382557 -7.14664590293976
lowerback 11.592380634874127 1.808319875298369 6.566165379444568
upperback 0.7232323039669023 3.3270642727448774 2.2483943468481096
thorax -5.509599965089164 1.507415004316707 -1.8324808523679583
lowerneck -17.479578304377547 -3.5484289106349136 -1.5490073154900765
upperneck 20.09068535285938 -4.502807509353597 0.20933439163098577
head 9.297064255277194 -2.20477334574473 -0.25516705339129225
rclavicle 1.8219964628976812E-15 7.292595432150048E-16
rhumerus -28.227387857563187 -17.66676841837963 -78.00709949061478
rradius 29.39629353771182
rwrist 0.3463769642329204
rhand -19.232736562615496 24.461329831837705
rfingers 7.125020000000017
rthumb 7.082234570316539 -5.442296962339768
lclavicle -1.7318327949959467E-15 1.3554770781937067E-15
lhumerus -35.142339707250876 -0.8624154713546363 84.9483358686369
lradius 28.14105500604537
lwrist 6.656721928255823
lhand -27.298428210655715 23.706228085942957
lfingers 7.125020000000015
lthumb -0.7003635452181474 53.696465970610504
rfemur 1.0623448449753239 8.408049708337181 36.474127841647636
rtibia 31.194046236630896
rfoot -22.169193740753904 -7.626031750152482
rtoes 7.040204231687825
lfemur -28.79408808393975 -1.3350195935150981 -10.69378808890751
ltibia 26.328237290226046
lfoot -5.693663149794801 3.852582995992879
ltoes -6.023039941977647
314
root 0 0 0 -1.6112215938144931 -5.265591818228829 -7.164880000841107
lowerback 11.471211175677862 1.8573877594828905 6.641151604801361
upperback 0.8247325620117301 3.388210149189959 2.2278793977314457
thorax -5.323421938095286 1.5371927215132764 -1.9000661840589763
lowerneck -17.55631934620915 -3.5172114569190045 -1.6042472811902266
upperneck 19.610473185125702 -4.442781864188824 0.2783476448287867
head 9.118800418778198 -2.181545432124119 -0.2153705729671927
rclavicle 2.177784107219543E-15 3.4624920940827474E-17
rhumerus -27.865031167646162 -17.383149437630085 -77.91338982334481
rradius 29.800068942853965
rwrist 0.057165066345953974
rhand -19.31193091892625 24.63143660939593
rfingers 7.125020000000017
rthumb 7.006177873024934 -5.279548448983743
lclavicle -1.5746560153652948E-15 6.321390886071937E-16
lhumerus -35.27072010756168 -0.6302803757286533 84.84612820617377
lradius 27.875023494863633
lwrist 6.484440951502643
lhand -27.28132608277643 23.768169030041506
lfingers 7.125020000000016
lthumb -0.6840818837391112 53.759138024495364
rfemur 6.934211706227873 8.285956986747337 35.37876659705336
rtibia 27.48359933049677
rfoot -21.64303053664772 -6.555068442941528
rtoes 2.192627407094492
lfemur -26.799638621065956 -3.913132720747996 -11.167348361679242
ltibia 20.51015583271162
lfoot -5.22595819106674 4.508090607803415
ltoes -2.6397524681877407
315
root 0 0 0 -1.7876839973553662 -5.28125593549638 -6.983305036217558
lowerback 11.537783386791741 1.882188978396791 6.429730280511363
upperback 0.7836720110689384 3.3968505287555137 2.170172120041449
thorax -5.41033176885468 1.5449627333472318 -1.8451433530434462
lowerneck -17.4369638049767 -3.5601585031931493 -1.5947512995764268
upperneck 19.44159380347158 -4.526919544565199 0.3777665627554274
head 9.05727279700239 -2.209408699401311 -0.19086838728968014
rclavicle 2.08740106928959E-15 -1.6633030865600003E-15
rhumerus -27.96017741932058 -17.83379901515508 -77.7075012508393
rradius 29.651488200440657
rwrist 0.21790068845124555
rhand -19.315630865712723 24.550194873362248
rfingers 7.125020000000017
rthumb 7.003648407990711 -5.366488094876281
lclavicle -1.7286750046089313E-15 -1.2598121009229784E-15
lhumerus -35.52766062463076 -0.19943128860642853 84.65433468654534
lradius 27.358286216909143
lwrist 6.1337764311183784
lhand -27.254762839561934 23.900533086623003
lfingers 7.125020000000017
lthumb -0.6581638336254843 53.89613229078941
rfemur 12.029312965483204 8.372585923423582 35.60267809046765
rtibia 26.617111004589674
rfoot -20.646502426738348 -5.072035080228217
rtoes -3.5117992323606986
lfemur -26.20288043965355 -4.547470652838607 -11.426373150093138
ltibia 20.22936634524961
lfoot -5.553396024999731 4.538159806234144
ltoes -1.4913658237970289
316
root 0 0 0 -2.0376386512125344 -5.2185474713198 -6.613832885803097
lowerback 11.61859893765101 1.9066639761206994 6.010199232871564
upperback 0.6643835234693571 3.382143966048817 2.0505953975136073
thorax -5.595169344814031 1.5444681461063736 -1.7364143937972916
lowerneck -17.15325552150612 -3.632488265252196 -1.5325027257163022
upperneck 19.47724644044606 -4.679607793148519 0.5085105505849861
head 9.058946830284192 -2.258515777534372 -0.17018321071518044
rclavicle 1.145556757131743E-15 -2.414715477329292E-15
rhumerus -28.417628379640362 -18.83630253444811 -77.3160930381165
rradius 29.15885447816429
rwrist 0.6398754266336732
rhand -19.29189243056976 24.29518698306044
rfingers 7.125020000000017
rthumb 7.027260124910631 -5.631114367323999
lclavicle -2.7574533018950053E-15 -2.2910099100251727E-15
lhumerus -35.82128941115813 0.5108330552824903 84.31941936945627
lradius 26.609413931163004
lwrist 5.675944221973713
lhand -27.16363152294605 24.142748005838456
lfingers 7.125020000000018
lthumb -0.5704032477993772 54.14571039088892
rfemur 11.995056928971966 7.6733469464008905 34.95298931532192
rtibia 30.536848350779167
rfoot -18.07646206284918 -3.70833035768262
rtoes -5.149999942582403
lfemur -25.664173591875024 -4.246482997950347 -12.186185780437183
ltibia 21.091342995081014
lfoot -5.371576065232077 3.7779577095413783
ltoes -1.3180774212200248
